<?xml version="1.0" encoding="UTF-8"?><svg id="Layer_2" xmlns="http://www.w3.org/2000/svg" viewBox="0 0 1258.7 517.78"><defs><style>.cls-1{fill:#272838;}</style></defs><g id="Layer_1-2"><path class="cls-1" d="m950.11,426.98c1.26,3.83,3.78,5.25,7.6,4.77,1.94-.24,4.11.36,5.84-.29,4.65-1.76,9.88-1.92,14.06-4.98.29-.21.63-.39.97-.48,4.39-1.18,8.85-2.18,13.17-3.57,4.77-1.53,9.41-3.43,14.12-5.13,1.03-.37,2.14-.52,3.16-.93,1.81-.72,3.58-1.56,5.37-2.35.22-.1.41-.3.64-.35,4.94-1.14,9.91-2.19,14.83-3.42,1.99-.5,3.87-1.44,5.84-2.07,1.14-.36,2.34-.64,3.53-.71,3.67-.22,7.67.59,10.95-.62,13.85-5.11,28.05-1.54,42.04-2.34,4.47-.26,7.66,3.29,7.56,7.8-.11,5.03.52,10.01-2.65,14.81-2.27,3.44-2.65,8.08-4.18,12.07-1.52,3.94-3.44,7.73-5.16,11.59-.2.44-.26.93-.4,1.4-1.15,3.94-1.81,8.12-3.57,11.77-2.81,5.84-4.84,11.82-6.45,18.08-1.4,5.48-3.27,11.05-6.13,15.87-1.59,2.68-1.68,5.38-2.74,7.9-1.63,3.89-3.91,7.63-6.52,10.95-1.92,2.44-7.01.11-8.7-2.26-4.1-5.75-2.18-12.13-2.95-18.22-.17-1.33-1.03-2.56-1.53-3.85-.42-1.1-1.02-2.2-1.11-3.34-.22-2.81.27-5.73-.35-8.43-1.46-6.37-3.4-12.63-5.15-18.94-.13-.47-.3-.92-.43-1.39-1.34-4.86-2.56-9.76-4.09-14.56-.48-1.51-1.8-2.74-2.7-4.13-2.86-4.36-6.65-7.55-11.05-10.42-2.53-1.65-4.82-3-7.56-2.24-2.88.8-5.81,2.04-8.24,3.76-4.71,3.33-8.66,7.99-13.71,10.55-9.92,5.03-15.85,14.08-23.47,21.38-4.56,4.37-7.98,9.91-12.31,14.56-5.4,5.82-10.99,11.49-16.89,16.8-4.66,4.2-9.65,8.16-14.95,11.51-8.13,5.15-17.12,8.33-26.85,6.18-4.39-.97-8.86-2.85-11.86-6.84-6.35-8.48-10.88-17.81-8.51-28.48.99-4.47,1.44-9.58,4.74-13.58,1.66-2.01,2.42-4.76,3.57-7.19.88-1.84,2.1-3.6,2.51-5.54.6-2.84,1.37-5.56-1.38-8.4-3.66-3.78-6.45-8.41-9.59-12.69-3.06-4.18-6.89-8.04-8.93-12.67-2.53-5.75-7.15-9.91-9.9-15.42-1.61-3.22-4.07-6.05-6.31-8.92-1.65-2.11-8.86-2.94-11.13-1.48-2.73,1.76-5.63,3.32-8.17,5.32-5.78,4.56-13.23,6.34-18.58,11.76-2.04,2.06-5.83,2.29-8.56,3.81-4.02,2.24-7.73,5-11.7,7.32-3.16,1.85-6.54,3.32-9.75,5.09-3.79,2.08-7.53,4.25-11.23,6.49-2.71,1.64-5.21,3.66-8,5.14-3.78,2-7.72,3.7-11.63,5.42-.85.37-2.15.71-2.82.33-4.04-2.34-9.09-2.65-12-7.38-3.16-5.14-7.33-9.66-11.11-14.41-3.23-4.06-6.5-8.08-9.82-12.07-2.81-3.38-9.14-3.34-12.18-.15-1.55,1.62-3.39,2.96-5.08,4.45-.35.31-.8.68-.88,1.09-1.24,6.25-6.59,9.47-10.38,13.73-4.41,4.96-9.46,9.37-14.41,13.82-2.06,1.85-4.81,2.94-6.87,4.8-4.82,4.36-9.24,9.16-14.14,13.41-3.48,3.02-5.98,7.4-11.17,8.36-1.12.21-1.85,2.09-2.95,2.95-3.96,3.07-8.02,6-12,9.04-1.11.85-1.94,2.12-3.13,2.81-7.21,4.18-13.61,9.65-21.5,12.81-5.25,2.1-9.95,5.54-15.11,7.92-1.98.91-4.59.38-6.84.84-1.78.37-3.43,1.29-5.17,1.89-1.01.35-2.06.78-3.11.81-3.43.1-6.88.25-10.28-.04-1.64-.14-3.19-1.23-4.81-1.82-1-.36-2.06-.86-3.09-.83-6.35.15-11.6-2.54-16.57-6.09-2.98-2.13-6.3-3.93-8.85-6.49-3.05-3.08-6.93-5.59-8.2-10.23-.34-1.25-1.59-2.33-2.6-3.31-2.51-2.45-1.89-6.64-3.48-8.6-3.96-4.9-.61-11.54-4.95-15.98-.6-.61-.36-2.12-.37-3.22-.05-5.27-.26-10.55.03-15.8.15-2.66,1.45-5.24,1.83-7.91.54-3.86.53-7.79,1.11-11.64.32-2.11,1.38-4.12,2.11-6.17.08-.23.28-.41.34-.64,1.16-4.31,2.13-8.69,3.51-12.93,1.51-4.62,3.33-9.15,5.15-13.67,1.07-2.66,2.28-5.27,3.6-7.81,1.9-3.68,4.09-7.21,5.9-10.94,1.42-2.93,2.3-6.12,3.71-9.06,1.49-3.1,3.26-6.07,5.01-9.04,2.16-3.66,4.43-7.24,6.62-10.88,1.34-2.22,2.46-4.58,3.95-6.69,2.55-3.61,5.52-6.92,7.92-10.62,2.65-4.1,4.66-8.62,7.32-12.72,1.77-2.73,4.19-5.04,6.28-7.57,2.93-3.55,5.69-7.26,8.76-10.69,5.31-5.9,10.87-11.57,16.19-17.46,1.88-2.07,3.2-4.64,5.08-6.72,5.32-5.89,10.9-11.55,16.18-17.47,3.18-3.56,7.48-5.99,9.13-11.14.89-2.78,4.05-4.88,6.3-7.16,5.76-5.83,11.58-11.59,17.38-17.37,2.7-2.69,5.42-5.36,8.13-8.05.26-.26.62-.47.75-.78,3.72-8.91,11.72-14.04,17.94-20.77,3.79-4.1,8.35-7.49,10.97-12.95,2.02-4.19,6.43-7.19,9.63-10.86,3.95-4.52,9.17-7.96,11.51-13.91.65-1.66,2.54-2.8,3.7-4.3,2.58-3.35,5.27-6.65,7.43-10.26.66-1.1-.27-3.15-.48-4.76-1.5.27-3.36.06-4.44.88-5.51,4.16-11.24,7.97-15.92,13.26-5.72,6.47-12.14,12.32-18.26,18.44-6.12,6.11-12.24,12.22-18.36,18.33-6.12,6.11-12.24,12.22-18.35,18.34-6.2,6.21-12.38,12.43-18.58,18.63-6.03,6.03-12.1,12.03-18.13,18.06-6.2,6.2-12.37,12.44-18.57,18.64-6.03,6.03-12.09,12.04-18.15,18.04-2.67,2.65-5.52,5.13-7.98,7.95-1.59,1.83-2.36,4.38-3.97,6.19-4.4,4.94-9,9.71-13.63,14.44-6.82,6.96-13.71,13.85-20.62,20.71-5.57,5.53-11.25,10.93-16.8,16.47-6.64,6.63-13.16,13.4-19.8,20.03-6.32,6.31-12.21,13.23-19.35,18.44-3.25,2.37-6.63,4.84-9.87,7.32-2.69,2.05-4.74,4.93-7.18,7.32-4.82,4.72-9.57,9.53-14.61,14-5.99,5.31-12.34,10.22-18.36,15.49-3.66,3.21-6.88,6.92-10.52,10.16-2.14,1.9-4.88,3.11-7.05,4.98-2.85,2.46-5.34,5.34-8.1,7.92-1.48,1.38-3.03,3.08-4.85,3.61-4.51,1.29-6.54,5.43-9.98,7.9-3.8,2.74-7.48,5.66-11.09,8.64-2.01,1.66-3.65,3.79-5.71,5.36-2.87,2.18-5.93,4.11-8.99,6.02-6.84,4.26-14.14,6.79-22.37,6.11-4.36-.36-10.06-5.72-10.2-10.03-.12-3.55-.63-7.23.1-10.63,1.02-4.72,3.02-9.23,4.62-13.82.2-.57.66-1.09.72-1.67.56-5.07,3.15-9.18,5.78-13.4,1.74-2.8,2.37-6.27,3.72-9.35.79-1.81,2.1-3.38,3.05-5.13,2.88-5.32,5.78-10.63,8.51-16.02,1.42-2.81,2.38-5.84,3.74-8.68,1.53-3.19,3.28-6.28,4.94-9.41,1.24-2.32,2.6-4.59,3.71-6.97,1.37-2.95,2.37-6.07,3.82-8.97,1.44-2.88,3.27-5.56,4.86-8.37,1.25-2.2,2.51-4.41,3.56-6.7,3.38-7.33,6.56-14.75,10.04-22.03,1.38-2.9,3.53-5.42,4.99-8.29,1.47-2.88,2.43-6.01,3.78-8.95,1.33-2.89,2.69-5.79,4.37-8.48,2.32-3.7,5.18-7.07,7.37-10.84,1.62-2.8,2.39-6.08,3.82-9.01,1.46-2.99,3.26-5.81,4.9-8.71,2.46-4.34,4.85-8.72,7.38-13.02,1.75-2.98,3.72-5.84,5.54-8.78,2.08-3.39,4.01-6.88,6.17-10.21,3.78-5.81,7.74-11.51,11.53-17.32,1.41-2.16,2.52-4.52,3.88-6.73,3.28-5.34,6.58-10.67,9.97-15.95.63-.98,1.83-1.58,2.46-2.56,3.35-5.22,6.42-10.63,9.93-15.73,3.4-4.94,7.34-9.51,10.81-14.41,3.63-5.13,6.98-10.46,10.44-15.72,1.75-2.65,3.53-5.28,5.13-8.01.31-.53-.14-1.51-.24-2.28-.63.18-1.4.19-1.87.57-4.73,3.82-9.42,7.71-14.11,11.57-.37.3-.94.54-1.08.92-2.65,7.55-9.06,12.04-14.24,17.51-2.01,2.13-4.49,3.85-6.34,6.1-1.68,2.06-2.49,4.84-4.22,6.84-3.41,3.95-7.19,7.57-10.83,11.33-.41.42-1.12.75-1.22,1.23-1.28,6.23-6.94,9.17-10.3,13.82-1.85,2.57-3.76,5.1-5.74,7.57-1.99,2.49-3.78,5.28-6.21,7.24-4.72,3.8-7.78,8.86-11.48,13.46-3.19,3.95-6.8,7.55-10.1,11.42-1.9,2.23-3.42,4.77-5.33,6.99-3.4,3.94-7.07,7.64-10.42,11.61-1.78,2.11-2.89,4.79-4.7,6.87-3.39,3.91-7.19,7.48-10.6,11.38-3.02,3.45-5.7,7.19-8.63,10.73-2.11,2.56-4.29,5.07-6.59,7.45-4.61,4.78-9.31,9.47-14.01,14.16-1.67,1.67-3.48,3.2-5.2,4.83-.42.4-.98.88-1.05,1.39-.67,4.83-4.68,7.38-7.51,10.59-4.15,4.71-10.23,8.19-13.03,13.49-3.38,6.39-8.79,10.55-13.01,15.92-4.77,6.06-10.61,11.4-14.64,17.89-6.1,9.8-14.84,17-22.51,25.23-6.54,7.02-13.84,13.33-20.74,20.03-2.54,2.46-4.47,6.05-7.45,7.44-3.9,1.82-6.61,4.72-9.7,7.33-1.17.98-2.19,2.19-3.45,3.02-5.08,3.3-10.34,6.35-15.33,9.77-4.96,3.41-9.54,7.38-14.55,10.69-4.05,2.68-8.49,4.75-12.76,7.09-2.08,1.14-4.15,2.29-6.25,3.39-3.06,1.61-6.14,3.18-9.22,4.77-.22.11-.41.28-.64.35-4.41,1.27-8.82,2.54-13.23,3.8-.81.23-1.66.35-2.46.62-2.07.7-4.06,1.73-6.18,2.13-2.78.52-5.86-.39-8.02,2.48-.46.61-2.08.48-3.17.49-16.42.03-32.84.07-49.25-.06-1.61-.01-3.22-1.16-4.81-1.81-.44-.18-.87-.71-1.25-.66-5.15.7-9.48-2.07-14.14-3.38-2.55-.72-5.06-1.88-7.32-3.27-3.92-2.41-7.41-5.61-11.5-7.61-3.65-1.79-6.58-4.12-9.3-7-2.66-2.82-5.82-5.22-8.25-8.21-3.74-4.61-6.45-9.94-10.91-14.12-2.21-2.07-2.99-5.66-4.41-8.56-.68-1.38-1.58-2.7-2.01-4.16-1.46-4.87-2.89-9.75-4.05-14.69-.54-2.29.24-4.83-2.22-6.62-.7-.51-.68-2.27-.68-3.46-.04-13.48-.09-26.95.06-40.43.02-1.61,1.24-3.19,1.81-4.81.39-1.12.72-2.28.89-3.45.45-3.13-.79-6.74,2.61-9.03.16-.11.16-.45.22-.69,1.16-4.53,2.15-9.1,3.54-13.56.96-3.08,2.35-6.06,3.79-8.96,1.38-2.77,2.98-5.44,4.64-8.06,1.87-2.96,3.93-5.8,5.87-8.72,3.54-5.34,6.82-10.87,10.64-16,2.81-3.77,6.23-7.12,9.55-10.48,2.65-2.69,5.21-5.75,8.43-7.53,6.35-3.51,10.68-9.27,16.35-13.42,4.79-3.51,9.94-6.56,15.14-9.45,2.94-1.63,6.38-2.34,9.43-3.8,2.8-1.34,5.34-3.2,8.08-4.68,2.38-1.28,4.8-2.54,7.33-3.46,3.6-1.31,7.31-2.34,10.99-3.43,5.67-1.68,11.37-3.18,16.77-5.79,2.25-1.09,5.27-.57,7.94-.78,2.37-.18,4.88.38,6.64-2.12.45-.63,2.04-.61,3.11-.63,4.78-.08,9.58.22,14.33-.18,4.07-.34,7.21,1.43,8.69,4.5,1.74,3.61,1.49,7.59-1.17,11.38-2.95,4.2-5.09,8.96-7.67,13.43-1.57,2.72-3.29,5.34-4.92,8.02-.25.41-.42.88-.54,1.34-1.34,4.86-1.81,10.21-4.2,14.48-3.75,6.69-2.82,13.61-2.27,20.34.61,7.57,4.58,14.11,10.93,18.52,4.59,3.18,9.62,5.8,14.67,8.2,2.1,1,4.79,1.03,7.21,1.02,8.32-.04,16.67.05,24.96-.59,4.72-.37,9.45-1.72,13.96-3.28,4.48-1.55,8.88-3.56,12.96-5.98,5.88-3.49,11.08-8.3,17.22-11.15,7.36-3.43,12.56-9.5,19.22-13.71,3.82-2.41,6.54-6.52,10.02-9.56,3.52-3.08,7.46-5.68,11.06-8.67,2.56-2.13,4.91-4.52,7.28-6.87,5.82-5.77,11.62-11.56,17.38-17.39,5.6-5.66,11.12-11.4,16.74-17.04,5.54-5.56,11.19-11,16.73-16.55,6.72-6.73,13.35-13.54,20.06-20.27,5.45-5.47,10.98-10.87,16.44-16.34,6.8-6.81,13.55-13.67,20.35-20.48,5.46-5.46,11-10.85,16.46-16.32,6.8-6.81,13.31-13.93,20.42-20.4,4.22-3.84,8.14-8.07,13.41-10.91,3.86-2.08,6.79-5.94,9.98-9.17,5.58-5.64,10.95-11.49,16.58-17.09,4.78-4.75,9.68-9.4,14.76-13.82,3.47-3.02,7.45-5.43,10.99-8.37,2.52-2.1,4.69-4.63,7.01-6.97,3.41-3.45,6.51-7.09,11.48-8.79,2.44-.84,4.13-3.75,6.29-5.57,3.63-3.05,7.46-5.87,11.02-8.98,3.91-3.41,7.53-7.15,11.44-10.56,2.21-1.92,4.83-3.35,7.12-5.18,2.76-2.22,5.25-4.8,8.07-6.94,2.47-1.87,5.14-3.54,7.89-4.97,3.64-1.89,7.43-3.51,11.2-5.13.98-.42,2.12-.59,3.19-.62,6.66-.17,13.17-.24,19.56,2.77,6.58,3.11,9.83,13.03,5.53,19.13-.46.65-.51,1.6-.76,2.4-1.16,3.64-1.92,7.48-3.59,10.87-1.79,3.63-4.54,6.77-6.71,10.23-2.92,4.66-5.72,9.4-8.49,14.15-2.73,4.67-5.43,9.35-8,14.11-1.42,2.63-2.43,5.48-3.81,8.13-1.77,3.4-3.78,6.67-5.57,10.05-1.2,2.26-2.23,4.62-3.29,6.95-2.4,5.3-4.64,10.68-7.21,15.89-1.4,2.84-3.43,5.37-5.04,8.12-1.17,2-2.24,4.09-3.14,6.23-1.28,3.02-2.24,6.19-3.57,9.19-1.83,4.12-3.94,8.11-5.81,12.21-1.13,2.48-1.88,5.15-3.07,7.6-1.83,3.75-4.01,7.34-5.81,11.1-1.41,2.96-2.34,6.15-3.73,9.13-1.35,2.9-3.01,5.66-4.53,8.48-.45.84-1.17,1.64-1.31,2.54-.81,4.91-3.06,9.07-5.81,13.18-1.77,2.65-2.33,6.09-3.74,9.02-1.49,3.1-3.41,5.99-5.03,9.02-1.29,2.41-2.46,4.89-3.59,7.39-2.34,5.17-4.47,10.43-6.96,15.52-1.37,2.8-3.39,5.28-4.91,8.01-1.08,1.94-1.92,4.02-2.7,6.1-1.75,4.67-5.5,8.65-4.68,14.22.46,3.13,1.41,3.83,3.85,1.99,4.15-3.13,7.72-7.54,12.35-9.38,5.89-2.34,8.59-7.79,13.46-10.94,2.23-1.44,3.73-3.95,5.8-5.7,3.68-3.13,7.63-5.94,11.27-9.11,3.93-3.41,7.7-7.02,11.43-10.66,5.87-5.72,11.69-11.49,17.45-17.31,5.6-5.66,11.05-11.48,16.67-17.12,5.54-5.56,11.23-10.95,16.8-16.47,3.29-3.26,6.39-6.72,9.73-9.93,5.2-5,10.56-9.83,15.78-14.79,2.14-2.03,3.8-4.73,6.21-6.29,5.14-3.31,9.64-7.25,13.86-11.61,6.68-6.92,13.35-13.86,20.2-20.61,5.66-5.58,11.61-10.85,17.34-16.36,1.86-1.79,3.06-4.57,5.19-5.71,6.2-3.31,11.04-8.23,16.21-12.75,3.64-3.19,6.41-7.4,10.14-10.46,3.38-2.78,5.71-6.96,10.64-7.96,1.56-.31,2.76-2.46,4.11-3.79,4.57-4.48,8.44-10.4,13.9-13.08,6.02-2.96,9.27-9.34,16.06-11.05,2.18-.55,3.57-3.72,5.64-5.25,3.08-2.28,6.37-4.32,9.71-6.21,4.12-2.33,8.43-4.33,12.56-6.63,2.8-1.56,5.39-3.49,8.16-5.09.9-.52,2.14-.4,3.17-.74,1.21-.4,2.38-.95,3.53-1.5.42-.2.72-.81,1.13-.88,6.41-1.13,12.82-2.28,19.25-3.23.9-.13,1.95.69,2.92,1.1,1.18.5,2.3,1.34,3.52,1.49,5.15.67,10.18,4.85,11.77,9.92.32,1.02,1.06,1.9,1.46,2.89.4.99,1.17,2.32.82,3.03-2.43,4.86-2.42,10.73-6.58,14.92-3.26,3.27-6.81,6.08-8.73,10.9-1.6,4.02-5.92,7.01-9.17,10.33-3.7,3.79-7.55,7.45-11.33,11.16-4.59,4.5-9.48,8.73-13.67,13.57-3.94,4.56-9.27,7.85-11.71,13.91-1.15,2.85-4.32,4.91-6.61,7.29-3.55,3.69-7.3,7.21-10.64,11.08-3.17,3.68-5.96,7.69-8.83,11.62-1.97,2.71-.23,8.09,3.54,10.95,4.25,3.22,8.71,6.17,12.82,9.55,2.63,2.16,4.68,5.01,7.24,7.28,2.08,1.84,4.57,3.22,6.79,4.9,2.75,2.08,6.06,3.82,7.96,6.52,2.79,3.98,7.28,5.38,10.56,8.47,1.8,1.69,3.67,3.31,5.61,4.81,3.27,2.54,6.5,5.19,10.04,7.28.9.53,3.77-.43,4.31-1.46,2.95-5.62,7.55-9.66,11.92-14.03,2.54-2.54,4.02-6.11,6.37-8.88,2.8-3.31,6.07-6.21,9.06-9.37,3.26-3.45,6.33-7.09,9.67-10.46,4.33-4.38,8.71-8.72,13.36-12.75,1.21-1.05,3.46-1.19,5.24-1.23,4.65-.12,9.31.14,13.96.01,1.31-.04,3.49-.66,3.69-1.42.36-1.4-.22-3.21-.84-4.66-1.14-2.64-2.8-5.06-3.88-7.72-1.42-3.51.05-5.46,2.92-7.52,4.41-3.16,9.18-2.75,14.02-2.79,4.9-.04,9.8.06,14.7-.09,2.93-.09,6.16.75,8.41-2.32.41-.55,1.84-.48,2.8-.48,10.9-.05,21.83-.5,32.7.13,4.95.29,9.45,3.25,12.73,7.44,3.63,4.65,7.43,9.16,10.99,13.87,1.69,2.24,2.83,4.88,4.46,7.17,3.55,4.99,7.18,9.91,10.9,14.77,3.23,4.23,7.6,7.9,9.67,12.61,2.17,4.94,6.78,7.69,8.87,12.18,2.35,5.04,6.68,8.28,9.67,12.63,2.72,3.95,4.76,8.37,7.42,12.38,1.56,2.36,3.87,4.22,5.6,6.49,2.11,2.77,3.85,5.82,5.97,8.59,4.52,5.9,9.34,11.57,13.74,17.55,3,4.07,5.39,8.58,8.27,12.73,1.48,2.14,3.6,3.83,5.18,5.92,3.31,4.4,6.62,8.8,9.59,13.43,3.14,4.89,8.98,8.73,13.16,7.03,3.91-1.59,7.33-4.46,10.85-6.92,1.63-1.14,2.89-2.81,4.49-4.01,3.39-2.56,6.89-4.99,10.35-7.46,2.81-2,5.82-3.77,8.4-6.04,3.61-3.18,7.41-6.38,10.09-10.28,1.08-1.58.07-5.4-1.13-7.57-2.1-3.81-5.07-7.14-7.68-10.67-.36-.48-.72-1.3-1.13-1.34-4.14-.4-6.12-3.77-8.91-6.11-2.8-2.34-6.08-4.1-9.06-6.23-3.92-2.81-7.68-5.83-11.65-8.56-2.19-1.51-4.84-2.37-6.98-3.93-5.06-3.67-9.92-7.63-14.92-11.38-1.77-1.33-3.95-2.16-5.53-3.66-5.14-4.85-10.1-9.89-15.09-14.89-4.73-4.73-7.06-10.61-5.82-17.06.97-5.03,3.37-9.81,5.34-14.62,1.1-2.69,2.12-5.69,4.05-7.73,6.5-6.86,13.45-13.3,20.12-20.01,4.36-4.38,8.34-9.15,12.83-13.38,5.48-5.17,10.31-11.08,17.49-14.38,2.87-1.32,4.91-4.43,7.35-6.7,1.56-1.45,2.96-3.25,4.81-4.12,1.21-.57,3.59-.28,4.52.6,1.14,1.07,2.84,2.11,1.36,5.1-2.44,4.92-6.38,8.3-9.58,12.41-1.4,1.8-2.49,3.96-3.28,6.11-1.34,3.64-3.32,7.46-3.17,11.12.14,3.52,2.66,6.94,4.13,10.4,2.26,5.32,6.93,8.61,10.71,12.64,2.08,2.22,3.83,4.93,7.38,5.26.72.07,1.25,1.39,2.02,1.88,3.74,2.36,7.53,4.62,11.3,6.93,1.69,1.04,3.28,2.25,5.02,3.18,4.08,2.18,8.33,4.08,12.32,6.4,3.99,2.32,7.82,4.95,11.62,7.59,3.38,2.34,6.85,4.64,9.88,7.4,3.84,3.5,7.27,7.44,10.89,11.19,1.4,1.45,2.81,2.89,4.21,4.33.34.35.82.65.97,1.07,2.76,7.91,5.46,15.99,3.39,24.4-1.11,4.54-2.95,9.33-5.81,12.93-4.61,5.79-10.23,10.81-15.66,15.9-1.73,1.62-4.35,2.25-6.36,3.63-4.96,3.41-9.62,7.3-14.76,10.41-4.51,2.73-7.93,7.08-13.34,8.55-1.64.45-2.82,2.46-4.32,3.63-2.32,1.82-4.72,3.51-7.08,5.28-1.31.98-2.6,2-3.89,3.01-4.98,3.84-10.35,7.12-15.28,11.13-4.08,3.31-8.31,6.57-12.31,10.06-2.09,1.83-3.03,6.86-1.43,8.9,3.43,4.38,7.06,8.6,10.61,12.88.23.28.71.46.77.75,1.03,5.45,6.51,7.82,8.63,12.3,2.38,5.02,7.09,8.09,9.56,12.68,2.37,4.41,6.44,7.39,8.64,11.53,2.72,5.1,6.89,8.72,10.33,13.06,3.9,4.91,9.15,9.27,11.37,14.84,2.51,6.29,8.92,9.17,10.98,15.53.8,2.46,3.69,4.17,5.38,6.41,2.23,2.95,4.05,6.22,6.35,9.11,2.27,2.86,5.03,5.33,7.36,8.15,2.7,3.27,5.15,6.74,7.73,10.1,3.7,4.82,7.96,9.32,10.94,14.56,2.13,3.74,4.72,6.83,7.55,9.9,1.04,1.12,2.03,2.3,2.93,3.54,2.79,3.88,5.6,7.76,8.27,11.72,1.99,2.95-.21,6.57-2.88,8.45-4.78,3.36-9.92,2.27-14.96,2.75-.61.06-1.49-.04-1.77.31-2.77,3.54-6.69,2.4-10.19,2.43-15.68.11-31.38.44-47.04-.17-6.09-.24-11.86-2.98-14.57-9.54-.66-1.59-1.94-2.94-2.99-4.36-3.46-4.69-6.79-9.44-10.74-13.81-3.24-3.59-5.11-8.41-7.69-12.63-.91-1.49-2.08-2.82-3.17-4.2-2.95-3.71-5.98-7.36-8.86-11.12-3.86-5.04-8.3-9.81-11.2-15.37-2.49-4.76-6.48-7.89-9.46-11.98-2.85-3.92-4.68-8.58-7.13-12.81-.68-1.17-2.12-1.86-2.97-2.96-3.87-4.97-8.6-9.56-11.2-15.14-2.28-4.9-6.89-7.7-8.92-12.17-2.41-5.3-6.82-8.48-10.33-12.61-1.87-2.2-6.04-2.69-8.3-.97-4.64,3.55-8.86,7.84-13.94,10.55-5.98,3.19-9.83,8.76-15.26,12.13-3.44,2.13-6.61,4.31-9.56,7.03-6.75,6.21-14.32,11.45-21.36,17.33-5.01,4.18-9.56,9.13-14.97,12.51-3.43,2.14-6.58,4.47-9.64,7-5.63,4.64-11.51,9.06-16.65,14.21-4.49,4.5-8.11,9.88-12.07,14.81Zm-22.34-140.79c0,26.22.14,52.43-.09,78.64-.06,6.91,3.36,12.11,6.78,17.4.87,1.34,3.21,2.86,4.51,2.59,3.45-.73,7.02-1.91,9.96-3.82,3.41-2.21,5.91-5.29,7.64-9.45,1.97-4.72,5.3-8.84,5.2-14.34-.02-1.19.43-2.4.7-3.59.69-3,1.67-5.96,2.05-8.99.36-2.9.13-5.87.12-8.81-.03-9.23-.2-18.49,3-27.34.37-1.02,1.65-2.34,2.55-2.38,1.16-.05,3.17.84,3.42,1.72,1.25,4.53,4.59,8.54,3.56,13.68-.13.63.11,1.74.56,2.03,2.6,1.65,2.1,4.21,2.11,6.59.08,11.15.17,22.29.13,33.44-.01,3.3,1.56,4.64,4.54,3.88,1.81-.46,3.41-1.77,5.1-2.71,2.72-1.52,5.72-2.71,8.11-4.65,6.95-5.63,13.6-11.63,20.49-17.34,2.39-1.98,5.28-3.38,7.7-5.34,3.2-2.59,6.06-5.6,9.26-8.19,1.56-1.26,3.74-1.74,5.3-3,3.11-2.52,5.91-5.42,8.98-8.01,3.41-2.87,5.33-8.74,3.45-11.47-1.95-2.83-4.09-5.54-6.08-8.35-3.12-4.4-7.48-7.6-9.89-12.91-1.95-4.31-6.89-7.13-9.16-11.95-2.09-4.45-6.59-7.17-8.94-11.97-2.27-4.62-6.6-8.4-9.69-12.93-3.47-5.08-8.59-8.86-11.69-14.6-2.45-4.54-7.06-7.87-10.43-11.98-1.59-1.93-3.45-2.83-5.33-1.69-1.06.64-1.45,2.81-1.68,4.36-1.24,8.47,1.48,17.08-2.46,25.7-1.84,4.02-1.41,9.51-3.79,13.86-.47.86-1.72,1.68-2.69,1.79-1.02.11-2.86-.42-3.08-1.1-1.14-3.39-2.12-6.88-2.71-10.4-2.29-13.76,1.64-27.88-3.15-41.68-1.82-5.23-3.29-10.28-6.39-14.98-4.61-6.97-10.74-9.47-18.72-8.09-.88.15-1.91.59-2.48,1.24-4.33,4.91-6.84,10.49-6.81,17.25.11,25.97.04,51.94.05,77.91Zm-85.37,8.43h.02c0-20.21-.27-40.43.14-60.63.15-7.29-2.03-13.1-7.06-17.99-1.65-1.61-3.94-2.54-5.73-4.03-2.54-2.11-4.91-4.42-7.31-6.68-3.64-3.42-7.04-7.13-10.93-10.24-2.71-2.17-5.89-4.43-9.16-5.06-5.19-.99-9.32,2.16-12.93,5.75-4.52,4.5-8.84,9.08-8.96,16.04-.01.58-.37,1.14-.55,1.72-.69,2.15-1.97,4.29-1.97,6.44-.12,35.03-.09,70.06-.04,105.1,0,1.67.52,3.36.92,5.01.53,2.17,1.45,4.28,1.73,6.48.32,2.54.47,5.19.08,7.7-1.33,8.43,3.36,15.8,3.96,23.86.05.62.66,1.27,1.15,1.78,3.93,4.07,7.78,8.23,11.88,12.14,5.23,4.99,8.37,5.17,14.84,1.44,2.26-1.3,4.58-2.5,6.89-3.72,3.88-2.04,7.81-3.99,11.64-6.12,1.32-.73,2.25-2.33,3.61-2.78,5.85-1.93,7.91-5.92,7.86-11.9-.16-21.43-.06-42.87-.06-64.31Zm-147.02,14.65h-.04c0-18.75,0-37.49-.01-56.24,0-1.71.07-3.49-.36-5.11-.3-1.11-1.35-2.74-2.19-2.81-1.29-.11-3.14.54-3.92,1.53-2.2,2.77-3.95,5.89-5.92,8.84-.91,1.36-2.1,2.57-2.8,4.03-1.37,2.85-2.34,5.9-3.75,8.74-2.9,5.86-5.99,11.62-8.98,17.44-1.23,2.38-2.35,4.82-3.61,7.18-1.64,3.06-3.49,6.01-5.02,9.12-1.57,3.18-2.88,6.48-4.27,9.74-1.87,4.36-3.7,8.74-5.55,13.11-.28.66-.53,1.33-.85,1.97-1.6,3.2-3.56,6.27-4.74,9.62-1.59,4.52-2.44,9.28-3.84,13.87-1.64,5.35-4.67,10.54-5.06,15.94-.65,9.17-3.12,18.53,1.9,27.69,2.29,4.17,5.9,5.86,9.22,6.49,4.54.86,9.59,1.79,14.18-2.05,3.66-3.06,8.71-4.41,12.7-7.15,5.44-3.74,10.4-8.17,15.67-12.16,5.67-4.28,7.59-9.7,7.4-16.86-.47-17.63-.15-35.28-.15-52.93Zm-193.78-177.81c.58,1.18.82,2.01,1.35,2.57.22.23,1.2.07,1.59-.23,4.15-3.16,7.01-7.38,9.4-11.93.27-.51.08-1.39-.17-1.99-.08-.19-1.22-.25-1.55.03-2.27,1.94-4.58,3.87-6.62,6.04-1.54,1.64-2.68,3.65-4.01,5.51Z"/></g></svg>